#extradata 0:       50, 0x4f1b0df9
#tb 0: 1/90000
#media_type 0: video
#codec_id 0: h264
#dimensions 0: 640x360
#sar 0: 1/1
0,      -7200,          0,     3600,    22630, 0x9b109541, S=1,        1
0,      -3600,      14400,     3600,     4021, 0xbf7cdb02, F=0x0, S=1,        1
0,          0,       7200,     3600,     1096, 0x4f162690, F=0x0, S=1,        1
0,       3600,       3600,     3600,      687, 0x00394b95, F=0x0, S=1,        1
0,       7200,      10800,     3600,      445, 0x08c3d065, F=0x0, S=1,        1
0,      10800,      28800,     3600,     4212, 0x56d12b8f, F=0x0, S=1,        1
0,      14400,      21600,     3600,     1117, 0xd521260b, F=0x0, S=1,        1
0,      18000,      18000,     3600,      892, 0x4262bdbc, F=0x0, S=1,        1
0,      21600,      25200,     3600,      480, 0x3be1ef0b, F=0x0, S=1,        1
0,      25200,      43200,     3600,     4065, 0x40dee237, F=0x0, S=1,        1
0,      28800,      36000,     3600,      962, 0x31a4ceb1, F=0x0, S=1,        1
0,      32400,      32400,     3600,      651, 0xb2aa317a, F=0x0, S=1,        1
0,      36000,      39600,     3600,      543, 0x9c4e0024, F=0x0, S=1,        1
0,      39600,      57600,     3600,     4221, 0x77c23977, F=0x0, S=1,        1
0,      43200,      50400,     3600,     1040, 0x482cfa34, F=0x0, S=1,        1
0,      46800,      46800,     3600,      576, 0x2686136a, F=0x0, S=1,        1
0,      50400,      54000,     3600,      607, 0xc53c2339, F=0x0, S=1,        1
0,      54000,      72000,     3600,     4755, 0x2f642b58, F=0x0, S=1,        1
0,      57600,      64800,     3600,     1182, 0xbe1a4847, F=0x0, S=1,        1
0,      61200,      61200,     3600,      809, 0x8d948a4e, F=0x2, S=1,        1
0,      64800,      68400,     3600,      656, 0x4fa03c2b, F=0x0, S=1,        1
0,      68400,      86400,     3600,    26555, 0x5629b584, S=1,        1
0,      72000,      79200,     3600,     1141, 0x761b31e8, F=0x0, S=1,        1
0,      75600,      75600,     3600,      717, 0x57746351, F=0x0, S=1,        1
0,      79200,      82800,     3600,      693, 0x78b24263, F=0x0, S=1,        1
0,      82800,     100800,     3600,     3417, 0x560dbc89, F=0x0, S=1,        1
0,      86400,      93600,     3600,     1128, 0xc0f1383c, F=0x0, S=1,        1
0,      90000,      90000,     3600,      650, 0xc3ad485e, F=0x0, S=1,        1
0,      93600,      97200,     3600,      766, 0xd3e9757d, F=0x0, S=1,        1
0,      97200,     115200,     3600,     4268, 0xec1235b5, F=0x0, S=1,        1
0,     100800,     108000,     3600,     1119, 0x65f51fb7, F=0x0, S=1,        1
0,     104400,     104400,     3600,      766, 0x213b78d3, F=0x0, S=1,        1
0,     108000,     111600,     3600,      770, 0xa7537e6d, F=0x0, S=1,        1
0,     111600,     129600,     3600,     6349, 0xec225cf9, F=0x0, S=1,        1
0,     115200,     122400,     3600,     1188, 0x9dea396c, F=0x0, S=1,        1
0,     118800,     118800,     3600,      805, 0xdd9e88d0, F=0x0, S=1,        1
0,     122400,     126000,     3600,      752, 0x1f93730a, F=0x0, S=1,        1
0,     126000,     144000,     3600,     5502, 0x501bda5c, F=0x0, S=1,        1
0,     129600,     136800,     3600,     1240, 0x7e3661ea, F=0x0, S=1,        1
0,     133200,     133200,     3600,      830, 0xa8249f38, F=0x0, S=1,        1
0,     136800,     140400,     3600,      754, 0xab1c815e, F=0x0, S=1,        1
0,     140400,     158400,     3600,     5328, 0xd2c55ac6, F=0x0, S=1,        1
0,     144000,     151200,     3600,     1271, 0x46006870, F=0x0, S=1,        1
0,     147600,     147600,     3600,      849, 0x94dc99c7, F=0x2, S=1,        1
0,     151200,     154800,     3600,      753, 0xf4236cab, F=0x0, S=1,        1
0,     154800,     172800,     3600,    25825, 0xd5464dee, S=1,        1
0,     158400,     165600,     3600,     1206, 0x8ce84344, F=0x0, S=1,        1
0,     162000,     162000,     3600,      867, 0x312fa07d, F=0x0, S=1,        1
0,     165600,     169200,     3600,      719, 0x810666d1, F=0x0, S=1,        1
0,     169200,     187200,     3600,     3786, 0xa96a6825, F=0x0, S=1,        1
0,     172800,     180000,     3600,     1187, 0x77e649a2, F=0x0, S=1,        1
0,     176400,     176400,     3600,      750, 0x86da6d2e, F=0x0, S=1,        1
0,     180000,     183600,     3600,      815, 0xf09a9881, F=0x0, S=1,        1
0,     183600,     201600,     3600,     5275, 0xee3450bb, F=0x0, S=1,        1
0,     187200,     194400,     3600,     1352, 0x150a96e1, F=0x0, S=1,        1
0,     190800,     190800,     3600,      877, 0x6062a120, F=0x0, S=1,        1
0,     194400,     198000,     3600,      829, 0x5180988c, F=0x0, S=1,        1
0,     198000,     216000,     3600,     4421, 0x623aad33, F=0x0, S=1,        1
0,     201600,     208800,     3600,     1464, 0xd34dc851, F=0x0, S=1,        1
0,     205200,     205200,     3600,      903, 0xf63bbed0, F=0x0, S=1,        1
0,     208800,     212400,     3600,      717, 0xc17054b8, F=0x0, S=1,        1
0,     212400,     230400,     3600,     4787, 0x75e9400e, F=0x0, S=1,        1
0,     216000,     223200,     3600,     1435, 0xb01ccabb, F=0x0, S=1,        1
0,     219600,     219600,     3600,      851, 0x54bda291, F=0x0, S=1,        1
0,     223200,     226800,     3600,      809, 0x84e37fee, F=0x0, S=1,        1
0,     226800,     244800,     3600,     4541, 0xd4e5c0de, F=0x0, S=1,        1
0,     230400,     237600,     3600,     1545, 0x0099fc98, F=0x0, S=1,        1
0,     234000,     234000,     3600,      929, 0xfd72d049, F=0x0, S=1,        1
0,     237600,     241200,     3600,      829, 0xcfda9e96, F=0x0, S=1,        1
0,     241200,     259200,     3600,    24220, 0x5ca21d71, S=1,        1
0,     244800,     252000,     3600,     1422, 0xcde6cc34, F=0x0, S=1,        1
0,     248400,     248400,     3600,      883, 0xedacbe25, F=0x0, S=1,        1
0,     252000,     255600,     3600,      768, 0x89d774bc, F=0x0, S=1,        1
0,     255600,     273600,     3600,     3802, 0xea1d70d4, F=0x0, S=1,        1
0,     259200,     266400,     3600,     1284, 0x2c927097, F=0x0, S=1,        1
0,     262800,     262800,     3600,      745, 0x81076a7f, F=0x0, S=1,        1
0,     266400,     270000,     3600,      931, 0x3675dbfe, F=0x0, S=1,        1
0,     270000,     288000,     3600,     4830, 0x7a807a68, F=0x0, S=1,        1
0,     273600,     280800,     3600,     1446, 0x6224bc81, F=0x0, S=1,        1
0,     277200,     277200,     3600,      833, 0x56f78ae2, F=0x0, S=1,        1
0,     280800,     284400,     3600,      873, 0x9caeaf00, F=0x0, S=1,        1
0,     284400,     302400,     3600,     5167, 0x1703151f, F=0x0, S=1,        1
0,     288000,     295200,     3600,     1449, 0x0881b0d6, F=0x0, S=1,        1
0,     291600,     291600,     3600,      866, 0x0bffa719, F=0x0, S=1,        1
0,     295200,     298800,     3600,      874, 0xc243a65f, F=0x0, S=1,        1
0,     298800,     316800,     3600,     5426, 0x7c899c30, F=0x0, S=1,        1
0,     302400,     309600,     3600,     1574, 0x03b00f0d, F=0x0, S=1,        1
0,     306000,     306000,     3600,      860, 0x65cea74e, F=0x0, S=1,        1
0,     309600,     313200,     3600,      829, 0xffd795cd, F=0x0, S=1,        1
0,     313200,     331200,     3600,     5352, 0x59997996, F=0x0, S=1,        1
0,     316800,     324000,     3600,     1501, 0xb3b8f001, F=0x0, S=1,        1
0,     320400,     320400,     3600,      941, 0x92b0cb18, F=0x2, S=1,        1
0,     324000,     327600,     3600,      823, 0x3d548355, F=0x0, S=1,        1
0,     327600,     345600,     3600,    24042, 0x441e94fb, S=1,        1
0,     331200,     338400,     3600,     1582, 0x4f5d1049, F=0x0, S=1,        1
0,     334800,     334800,     3600,      945, 0x4f3cc9e8, F=0x0, S=1,        1
0,     338400,     342000,     3600,      815, 0x0ca790a4, F=0x0, S=1,        1
0,     342000,     360000,     3600,     4425, 0x1db2a088, F=0x0, S=1,        1
0,     345600,     352800,     3600,     1492, 0x881ce798, F=0x0, S=1,        1
0,     349200,     349200,     3600,      905, 0xbdd9c278, F=0x0, S=1,        1
0,     352800,     356400,     3600,      870, 0x64fbb0e1, F=0x0, S=1,        1
0,     356400,     374400,     3600,     5194, 0x138b1e1d, F=0x0, S=1,        1
0,     360000,     367200,     3600,     1483, 0xc5c9d717, F=0x0, S=1,        1
0,     363600,     363600,     3600,      977, 0x3648d9fc, F=0x0, S=1,        1
0,     367200,     370800,     3600,      834, 0x6c5d8969, F=0x0, S=1,        1
0,     370800,     388800,     3600,     6956, 0x6a548e0b, F=0x0, S=1,        1
0,     374400,     381600,     3600,     1187, 0x795f4163, F=0x0, S=1,        1
0,     378000,     378000,     3600,      925, 0x92bfc2fb, F=0x0, S=1,        1
0,     381600,     385200,     3600,      747, 0xea9978fc, F=0x0, S=1,        1
0,     385200,     403200,     3600,     5005, 0xc558c189, F=0x0, S=1,        1
0,     388800,     396000,     3600,      452, 0x7d92d9d8, F=0x0, S=1,        1
0,     392400,     392400,     3600,      784, 0xfd597a5f, F=0x0, S=1,        1
0,     396000,     399600,     3600,      199, 0x79b06355, F=0x0, S=1,        1
0,     399600,     417600,     3600,     1862, 0x22a2a06c, F=0x0, S=1,        1
0,     403200,     410400,     3600,      359, 0x11bdae52, F=0x0, S=1,        1
0,     406800,     406800,     3600,      235, 0xbec26964, F=0x2, S=1,        1
0,     410400,     414000,     3600,      221, 0x8380682c, F=0x0, S=1,        1
0,     414000,     432000,     3600,    22588, 0xf0ecf072, S=1,        1
0,     417600,     424800,     3600,      383, 0x4f3bb571, F=0x0, S=1,        1
0,     421200,     421200,     3600,      257, 0x22e87802, F=0x0, S=1,        1
0,     424800,     428400,     3600,      261, 0xdb988134, F=0x0, S=1,        1
0,     428400,     435600,     3600,      156, 0xd2c3406c, F=0x0, S=1,        1
0,     432000,     439200,     3600,      330, 0x150d9b60, F=0x0, S=1,        1
0,     435600,     446400,     3600,      324, 0x558194ee, F=0x0, S=1,        1
0,     439200,     442800,     3600,      191, 0x108e54d1, F=0x0, S=1,        1
0,     442800,     450000,     3600,      233, 0xac5b6486, F=0x0
